<?xml version="1.0" encoding="UTF-8"?>
<svg version="1.1" xmlns="http://www.w3.org/2000/svg" width="1024" height="1024">
<path d="M0 0 C337.92 0 675.84 0 1024 0 C1024 337.92 1024 675.84 1024 1024 C686.08 1024 348.16 1024 0 1024 C0 686.08 0 348.16 0 0 Z " fill="#F9F9F9" transform="translate(0,0)"/>
<path d="M0 0 C22.11 0 44.22 0 67 0 C69.61451426 6.53628566 71.96809982 12.78903694 73.890625 19.5078125 C74.15187164 20.4056395 74.41311829 21.30346649 74.68228149 22.22850037 C75.54320183 25.19257295 76.39668645 28.15872941 77.25 31.125 C77.86571207 33.25131806 78.48176845 35.37753644 79.09814453 37.50366211 C84.07041367 54.6795729 88.972972 71.87558419 93.87539673 89.0715332 C103.04644609 121.23970683 112.30431752 153.38634229 121.86135864 185.44232178 C122.41818265 187.31019955 122.97268305 189.17876952 123.52709961 191.04736328 C123.84686768 192.11196777 124.16663574 193.17657227 124.49609375 194.2734375 C124.76607178 195.17497559 125.0360498 196.07651367 125.31420898 197.00537109 C125.82806055 198.97432054 125.82806055 198.97432054 127 200 C127.23074219 199.13648926 127.46148437 198.27297852 127.69921875 197.38330078 C128.59758377 194.03085464 129.50038586 190.67965849 130.40576172 187.32910156 C130.78925069 185.90669464 131.17120016 184.48387134 131.55126953 183.06054688 C134.09519052 173.53959862 136.86338892 164.10610992 139.7890625 154.6953125 C144.01392136 141.09500231 147.93582548 127.41650046 151.81775284 113.71498489 C153.57149464 107.53087776 155.33543559 101.34966377 157.09765625 95.16796875 C157.29746031 94.46679365 157.49726437 93.76561855 157.70312309 93.04319572 C162.16862177 77.37457485 166.68825161 61.72179479 171.22882843 46.07478333 C171.80576932 44.08570488 172.38197479 42.09641487 172.95794678 40.10705566 C174.03883821 36.37413452 175.12271271 32.64208345 176.20703125 28.91015625 C176.67320107 27.29975212 176.67320107 27.29975212 177.14878845 25.65681458 C179.6511715 17.06315754 182.32856898 8.54857928 185 0 C207.11 0 229.22 0 252 0 C267.62479725 54.55209384 267.62479725 54.55209384 272.84799194 73.45349121 C279.95269906 99.15879711 287.41725733 124.76138312 294.84838009 150.37377739 C295.88133125 153.93420767 296.91366961 157.49481556 297.94604683 161.05541229 C298.65677866 163.50522754 299.36872869 165.95468621 300.08079529 168.40411377 C303.13196296 178.91484356 306.09216346 189.44873818 309 200 C316.69429697 175.54350362 324.17057377 151.03511343 330.61668205 126.21602249 C335.15245286 108.79719937 340.15282627 91.53461017 345.29400253 74.28646088 C347.27374227 67.63666004 349.23812064 60.98229181 351.203125 54.328125 C351.41495611 53.61125896 351.62678722 52.89439293 351.84503746 52.15580368 C355.83371515 38.65056387 359.67845539 25.10877755 363.37280273 11.52001953 C363.71770752 10.25270996 364.0626123 8.98540039 364.41796875 7.6796875 C364.70438232 6.61476074 364.9907959 5.54983398 365.28588867 4.45263672 C366 2 366 2 367 0 C390.43 0 413.86 0 438 0 C427.87206959 34.88509365 427.87206959 34.88509365 424.12890625 46.578125 C418.69006146 63.75190186 413.65416745 81.03987742 408.63684082 98.34057617 C407.68599664 101.61649908 406.7321273 104.89153792 405.77818966 108.16656113 C404.63098282 112.10551507 403.48529033 116.04490888 402.33984375 119.984375 C402.01777104 121.09153492 402.01777104 121.09153492 401.68919182 122.22106171 C401.08614924 124.29524523 400.48417254 126.36973482 399.88256836 128.44433594 C399.54188828 129.6180072 399.20120819 130.79167847 398.85020447 132.00091553 C398.19076249 134.32708794 397.56509089 136.64960798 397 139 C398.02996094 138.61328125 399.05992187 138.2265625 400.12109375 137.828125 C410.26175381 134.09209234 420.37021718 131.0242415 431 129 C431.91442871 128.82122314 432.82885742 128.64244629 433.77099609 128.45825195 C443.23836922 126.7907286 452.54470458 126.64442183 462.125 126.6875 C462.94359497 126.68899048 463.76218994 126.69048096 464.60559082 126.6920166 C475.90968837 126.72904298 486.93601289 127.03098854 498.00537109 129.546875 C500.08675797 130.01970903 502.17498107 130.43348218 504.26953125 130.84375 C531.85901932 136.49943847 558.44223398 150.69722353 578.88671875 170.0078125 C580.82133632 171.83157398 582.81900095 173.50417695 584.875 175.1875 C600.77517638 189.17199248 612.19999028 207.96356177 621 227 C621.52722656 228.11246094 622.05445313 229.22492188 622.59765625 230.37109375 C626 237.65912256 626 237.65912256 626 240 C616.63802319 240.27887524 607.27748906 240.49166139 597.91225529 240.62174606 C593.56264452 240.68420559 589.21588773 240.76879749 584.86791992 240.90527344 C580.66605912 241.03632756 576.46692928 241.10753772 572.26318169 241.13852692 C570.66530793 241.16058672 569.06757287 241.20367382 567.47087288 241.26876068 C554.97686866 241.75748362 554.97686866 241.75748362 550.08810425 237.41125488 C547.71285137 234.47878782 545.8771191 231.26966873 544 228 C529.21215769 208.85651231 504.98804032 196.24536999 481.3671875 192.41015625 C451.83134108 189.09346649 422.94048589 194.60663276 399.375 213.25 C374.45119812 234.66546613 358.59666128 260.89318312 355 294 C354.74660722 298.60903601 354.71262168 303.19739565 354.75 307.8125 C354.76123901 309.65497314 354.76123901 309.65497314 354.77270508 311.53466797 C355.03175062 333.44210623 359.19895461 352.89169577 370 372 C370.54398438 372.97324219 371.08796875 373.94648437 371.6484375 374.94921875 C386.20718578 399.27298113 410.09185574 417.42830338 437.40161133 424.97290039 C454.3999359 429.11925479 473.13212711 428.37734509 490 424 C491.11117188 423.7215625 492.22234375 423.443125 493.3671875 423.15625 C518.02314615 416.2975181 538.95369568 399.36227234 551.6875 377.3125 C552.03176025 376.72654053 552.37602051 376.14058105 552.73071289 375.53686523 C556.75169756 368.27852611 559.01386464 360.96302764 562 353 C529.66 352.67 497.32 352.34 464 352 C464 331.21 464 310.42 464 289 C520.43 289 576.86 289 635 289 C636.23793072 292.71379217 636.18089182 296.18099054 636.203125 300.05078125 C636.21027527 300.85261841 636.21742554 301.65445557 636.22479248 302.48059082 C636.55903199 351.13882716 625.59784898 400.52030491 591 437 C590.40848145 437.63244629 589.81696289 438.26489258 589.20751953 438.91650391 C564.99358156 464.61882719 534.63391266 480.7958658 500.1875 488.25 C499.0593689 488.49508301 499.0593689 488.49508301 497.90844727 488.74511719 C486.23270109 491.13192114 474.51220115 491.21443626 462.6418457 491.24023438 C459.96728837 491.24989243 457.29351715 491.28098171 454.61914062 491.3125 C438.20786076 491.41647254 423.11190163 489.28210373 407.5625 483.875 C406.41144775 483.48030518 405.26039551 483.08561035 404.07446289 482.67895508 C368.77347976 470.29053091 340.70081515 448.34963888 319 418 C318.54641113 417.36980957 318.09282227 416.73961914 317.62548828 416.09033203 C295.14942275 384.56012597 286.39743317 347.35977222 275.75415039 310.7109375 C271.20374678 295.05503694 266.5549147 279.43010994 261.875 263.8125 C254.93372931 240.64374796 248.17034344 217.42677029 241.4704895 194.18728638 C237.34987264 179.89555896 233.22462752 165.60814806 228.87890625 151.3828125 C228.56829254 150.36526886 228.25767883 149.34772522 227.93765259 148.29934692 C226.53608426 143.71819405 225.12314347 139.14096536 223.69238281 134.56884766 C223.20760408 132.99904759 222.72289843 131.42922495 222.23828125 129.859375 C222.0226503 129.18456085 221.80701935 128.5097467 221.58485413 127.81448364 C220.07665348 122.89873216 219.42202424 118.09960134 219 113 C218.34 113 217.68 113 217 113 C216.89002686 114.12664062 216.78005371 115.25328125 216.66674805 116.4140625 C216.05871792 121.23969419 214.75893748 125.73565058 213.33203125 130.375 C213.061026 131.27542526 212.79002075 132.17585052 212.51080322 133.1035614 C211.92433932 135.05004202 211.33503975 136.99567008 210.74319458 138.94052124 C209.13302896 144.23362986 207.54512882 149.53343801 205.953125 154.83203125 C205.45855553 156.47471733 205.45855553 156.47471733 204.95399475 158.15058899 C201.59637495 169.31200141 198.31941317 180.49635023 195.0625 191.6875 C194.77820129 192.66355194 194.49390259 193.63960388 194.20098877 194.64523315 C188.85990824 212.98650446 183.5636193 231.34072982 178.27612305 249.69750977 C174.47258854 262.90212894 170.65152214 276.10142133 166.80541992 289.29370117 C164.60035652 296.87505235 162.4463445 304.46873778 160.40576172 312.09619141 C159.1053592 316.8946408 159.1053592 316.8946408 158 318 C155.94443339 318.09413687 153.88559819 318.11742998 151.82788086 318.11352539 C150.86205833 318.11374443 150.86205833 318.11374443 149.87672424 318.1139679 C147.73939697 318.11326885 145.60215587 318.10547691 143.46484375 318.09765625 C141.98653715 318.09579204 140.50822993 318.09436815 139.02992249 318.09336853 C135.13201198 318.08954359 131.23413851 318.07971352 127.33624268 318.06866455 C123.36153667 318.05844992 119.38682471 318.0538708 115.41210938 318.04882812 C107.608056 318.03809122 99.80403318 318.02101509 92 318 C91.76303909 317.18038284 91.52607819 316.36076569 91.28193665 315.51631165 C86.59598394 299.31746338 81.87278024 283.13185122 77.02514648 266.98049927 C72.24372958 251.0376234 67.54929483 235.07316099 63 219.0625 C58.75639828 204.13164356 54.47073227 189.21398935 50.125 174.3125 C49.68157257 172.79181915 49.68157257 172.79181915 49.22918701 171.24041748 C46.13209433 160.62742745 43.01679459 150.02023893 39.84375 139.4296875 C39.58237747 138.55723892 39.32100494 137.68479034 39.05171204 136.78590393 C38.51509144 134.99509212 37.97845491 133.20428509 37.44180298 131.41348267 C37.0374855 130.06412125 37.0374855 130.06412125 36.625 128.6875 C36.35553558 127.78832855 36.08607117 126.8891571 35.80844116 125.96273804 C28.10869733 100.23586309 20.70548012 74.42180519 13.26220703 48.61987305 C13.00651916 47.733641 12.75083128 46.84740896 12.48739529 45.9343214 C11.28020357 41.74988646 10.07352855 37.56530432 8.86811829 33.38035583 C8.53807375 32.23552624 8.53807375 32.23552624 8.20136166 31.06756878 C7.77155646 29.5766665 7.34215657 28.0856473 6.9131937 26.59450245 C5.81603146 22.7895337 4.70143731 18.99063598 3.56253052 15.19793701 C3.21299993 14.02885583 3.21299993 14.02885583 2.85640812 12.83615685 C2.41136358 11.35075809 1.96295665 9.86636119 1.51064968 8.38315773 C0.6414776 5.47785627 0 3.05143157 0 0 Z " fill="#101010" transform="translate(186,254)"/>
<path d="M0 0 C56.43 0 112.86 0 171 0 C171 2.64 171 5.28 171 8 C170.67 8 170.34 8 170 8 C170 6.02 170 4.04 170 2 C113.9 2.33 57.8 2.66 0 3 C0 2.01 0 1.02 0 0 Z " fill="#262626" transform="translate(650,543)"/>
<path d="M0 0 C8.71844003 -0.02312611 17.43686956 -0.04091646 26.15533352 -0.05181217 C30.20325742 -0.05704041 34.25116041 -0.06413699 38.29907227 -0.07543945 C42.20235971 -0.08627043 46.10562699 -0.09227728 50.0089283 -0.09487724 C51.50133647 -0.09673111 52.99374348 -0.100351 54.48614311 -0.10573006 C56.56948139 -0.11294331 58.65273531 -0.11399083 60.73608398 -0.11352539 C61.92411118 -0.115746 63.11213837 -0.11796661 64.33616638 -0.12025452 C67 0 67 0 68 1 C68.04063832 2.66617115 68.042721 4.33388095 68 6 C67.01 4.515 67.01 4.515 66 3 C63.21401827 2.52120602 63.21401827 2.52120602 59.89794922 2.56762695 C58.61677216 2.54783279 57.33559509 2.52803864 56.01559448 2.50764465 C54.61196031 2.50087434 53.20832454 2.49442754 51.8046875 2.48828125 C50.37263436 2.47144159 48.94059607 2.45329232 47.50857544 2.43388367 C43.73733153 2.38629942 39.96614779 2.356545 36.19470215 2.33044434 C32.34712842 2.30068096 28.49976222 2.25413629 24.65234375 2.20898438 C17.10166528 2.12285564 9.55097187 2.05555341 2 2 C2.33 3.98 2.66 5.96 3 8 C0.4345406 5.4345406 0.45953913 3.52313332 0 0 Z " fill="#010101" transform="translate(186,254)"/>
<path d="M0 0 C23.43 0 46.86 0 71 0 C70.34 1.65 69.68 3.3 69 5 C68.505 3.515 68.505 3.515 68 2 C45.56 2 23.12 2 0 2 C0 1.34 0 0.68 0 0 Z " fill="#010101" transform="translate(553,254)"/>
<path d="M0 0 C0.99 0.495 0.99 0.495 2 1 C2 1.66 2 2.32 2 3 C23.12 2.67 44.24 2.34 66 2 C66 2.99 66 3.98 66 5 C44.22 5 22.44 5 0 5 C0 3.35 0 1.7 0 0 Z " fill="#303030" transform="translate(278,567)"/>
<path d="M0 0 C1.64934888 3.29869776 0.02654261 6.58488494 -0.875 10 C-1.06191406 10.73734375 -1.24882812 11.4746875 -1.44140625 12.234375 C-2.84527726 17.69055451 -2.84527726 17.69055451 -4 20 C-4.66 20 -5.32 20 -6 20 C-5.46137794 14.07515739 -4.29622483 4.29622483 0 0 Z " fill="#0A0A0A" transform="translate(345,347)"/>
<path d="M0 0 C1.84790538 3.31016094 2.74541487 6.57173491 3.625 10.25 C3.88539063 11.32765625 4.14578125 12.4053125 4.4140625 13.515625 C4.60742188 14.33546875 4.80078125 15.1553125 5 16 C3.08203125 15.375 3.08203125 15.375 1 14 C0.13671875 11.25 0.13671875 11.25 -0.3125 8 C-0.47363281 6.9275 -0.63476562 5.855 -0.80078125 4.75 C-1 2 -1 2 0 0 Z " fill="#181818" transform="translate(542,592)"/>
<path d="M0 0 C0.66 0 1.32 0 2 0 C1.67 2.97 1.34 5.94 1 9 C0.01 9 -0.98 9 -2 9 C-1.34 6.03 -0.68 3.06 0 0 Z " fill="#161616" transform="translate(327,405)"/>
</svg>
